<svg width="1200" height="760" viewBox="0 0 1200 760" fill="none" xmlns="http://www.w3.org/2000/svg">
  <defs>
    <linearGradient id="bg2" x1="80" y1="44" x2="1120" y2="716" gradientUnits="userSpaceOnUse">
      <stop stop-color="#0E1219"/>
      <stop offset="1" stop-color="#06080B"/>
    </linearGradient>
    <linearGradient id="line2" x1="56" y1="88" x2="1144" y2="672" gradientUnits="userSpaceOnUse">
      <stop stop-color="#59D7FF"/>
      <stop offset="1" stop-color="#FF8B4D"/>
    </linearGradient>
  </defs>
  <rect width="1200" height="760" rx="28" fill="url(#bg2)"/>
  <rect x="24" y="24" width="1152" height="712" rx="22" stroke="#FFB85C" stroke-opacity="0.42" stroke-width="2"/>
  <text x="58" y="92" fill="#F1E7D8" font-family="Inter, Arial, sans-serif" font-size="18" font-weight="700" letter-spacing="0.14em">SYNTHETIC IDENTITY LOSSES / MARKET SIGNALS</text>
  <path d="M58 128 H1142" stroke="url(#line2)" stroke-opacity="0.45" stroke-width="2"/>

  <g transform="translate(58 180)">
    <rect width="340" height="486" rx="28" fill="#11161F" stroke="#59D7FF" stroke-opacity="0.24"/>
    <text x="28" y="40" fill="#B8C1CC" font-family="IBM Plex Mono, monospace" font-size="12" letter-spacing="0.18em">LOSSES BY CHANNEL</text>
    <text x="28" y="92" fill="#FF8B4D" font-family="Inter, Arial, sans-serif" font-size="42" font-weight="800">$3.1B+</text>
    <text x="28" y="128" fill="#D1D8E0" font-family="Inter, Arial, sans-serif" font-size="16">Projecting U.S. unsecured credit loss</text>
    <g transform="translate(28 180)">
      <rect width="284" height="18" rx="9" fill="#1E2632"/>
      <rect width="216" height="18" rx="9" fill="#59D7FF" fill-opacity="0.9"/>
      <text x="0" y="54" fill="#9EA8B7" font-family="IBM Plex Mono, monospace" font-size="12">U.S. unsecured credit</text>
    </g>
    <g transform="translate(28 256)">
      <rect width="284" height="18" rx="9" fill="#1E2632"/>
      <rect width="250" height="18" rx="9" fill="#FF8B4D" fill-opacity="0.88"/>
      <text x="0" y="54" fill="#9EA8B7" font-family="IBM Plex Mono, monospace" font-size="12">Broader annual economic loss</text>
    </g>
    <g transform="translate(28 332)">
      <rect width="284" height="18" rx="9" fill="#1E2632"/>
      <rect width="188" height="18" rx="9" fill="#F1E7D8" fill-opacity="0.8"/>
      <text x="0" y="54" fill="#9EA8B7" font-family="IBM Plex Mono, monospace" font-size="12">Fraud share flagged in 2025</text>
    </g>
  </g>

  <g transform="translate(434 180)">
    <rect width="708" height="486" rx="28" fill="#0E131A" stroke="#59D7FF" stroke-opacity="0.22"/>
    <text x="28" y="40" fill="#B8C1CC" font-family="IBM Plex Mono, monospace" font-size="12" letter-spacing="0.18em">RISK SIGNALS / SURVEY SNAPSHOT</text>
    <g transform="translate(28 88)">
      <rect x="0" y="0" width="652" height="344" rx="22" fill="#11161E" stroke="#2B3340"/>
      <path d="M46 284 C134 250, 166 264, 236 214 C306 164, 346 114, 412 126 C478 138, 540 86, 606 98" stroke="url(#line2)" stroke-width="4" stroke-linecap="round"/>
      <path d="M46 284 C134 250, 166 264, 236 214 C306 164, 346 114, 412 126 C478 138, 540 86, 606 98" stroke="#59D7FF" stroke-opacity="0.18" stroke-width="18" stroke-linecap="round"/>
      <circle cx="46" cy="284" r="10" fill="#59D7FF"/>
      <circle cx="236" cy="214" r="10" fill="#59D7FF"/>
      <circle cx="412" cy="126" r="10" fill="#FF8B4D"/>
      <circle cx="606" cy="98" r="10" fill="#FF8B4D"/>
      <text x="34" y="326" fill="#8B94A5" font-family="IBM Plex Mono, monospace" font-size="11">2020</text>
      <text x="222" y="326" fill="#8B94A5" font-family="IBM Plex Mono, monospace" font-size="11">2023</text>
      <text x="398" y="326" fill="#8B94A5" font-family="IBM Plex Mono, monospace" font-size="11">2025</text>
      <text x="592" y="326" fill="#8B94A5" font-family="IBM Plex Mono, monospace" font-size="11">2026</text>
    </g>
    <g transform="translate(28 444)">
      <text x="0" y="0" fill="#F1E7D8" font-family="Inter, Arial, sans-serif" font-size="20" font-weight="700">What the numbers actually say</text>
      <text x="0" y="30" fill="#9EA8B7" font-family="Inter, Arial, sans-serif" font-size="15">Synthetic identity losses are small per account, large in aggregate, and accelerating across onboarding, lending, and account-creation flows.</text>
    </g>
  </g>
</svg>
