<svg width="1600" height="900" viewBox="0 0 1600 900" fill="none" xmlns="http://www.w3.org/2000/svg">
  <defs>
    <linearGradient id="bg" x1="0" y1="0" x2="1600" y2="900" gradientUnits="userSpaceOnUse">
      <stop stop-color="#05070d"/>
      <stop offset="1" stop-color="#0b1422"/>
    </linearGradient>
    <filter id="glow" x="-50%" y="-50%" width="200%" height="200%">
      <feGaussianBlur stdDeviation="12" result="blur"/>
      <feMerge>
        <feMergeNode in="blur"/>
        <feMergeNode in="SourceGraphic"/>
      </feMerge>
    </filter>
    <pattern id="dots" width="52" height="52" patternUnits="userSpaceOnUse">
      <circle cx="3" cy="3" r="1.4" fill="rgba(255,255,255,0.08)"/>
    </pattern>
  </defs>

  <rect width="1600" height="900" fill="url(#bg)"/>
  <rect width="1600" height="900" fill="url(#dots)" opacity="0.7"/>
  <rect x="44" y="44" width="1512" height="812" rx="28" stroke="rgba(138,208,255,0.38)" stroke-width="2"/>

  <g font-family="Arial, Helvetica, sans-serif">
    <text x="92" y="110" fill="#8ad0ff" font-size="22" letter-spacing="5">DOCUMENTED INCIDENTS</text>
    <text x="92" y="146" fill="#f4eadc" font-size="48" font-weight="700" letter-spacing="-1">The chain is public now</text>
  </g>

  <g stroke="rgba(255,139,77,0.55)" stroke-width="3" filter="url(#glow)">
    <line x1="120" y1="314" x2="1480" y2="314"/>
  </g>
  <g>
    <circle cx="190" cy="314" r="14" fill="#ff8b4d"/>
    <circle cx="470" cy="314" r="14" fill="#8ad0ff"/>
    <circle cx="760" cy="314" r="14" fill="#ff8b4d"/>
    <circle cx="1070" cy="314" r="14" fill="#8ad0ff"/>
    <circle cx="1390" cy="314" r="14" fill="#ff8b4d"/>
  </g>

  <g font-family="Arial, Helvetica, sans-serif">
    <g transform="translate(90 360)">
      <rect width="250" height="380" rx="24" fill="rgba(255,255,255,0.05)" stroke="rgba(255,139,77,0.28)" stroke-width="2"/>
      <text x="24" y="48" fill="#ff8b4d" font-size="18" letter-spacing="4">01</text>
      <text x="24" y="94" fill="#f4eadc" font-size="30" font-weight="700">Sydney leak</text>
      <text x="24" y="138" fill="#b69f86" font-size="18">System prompt extraction</text>
      <rect x="24" y="184" width="202" height="124" rx="18" fill="rgba(255,139,77,0.08)" stroke="rgba(255,139,77,0.25)"/>
      <path d="M 52 248 H 198" stroke="#ff8b4d" stroke-width="4" stroke-linecap="round"/>
      <path d="M 52 220 H 176" stroke="rgba(255,255,255,0.55)" stroke-width="3" stroke-linecap="round"/>
      <path d="M 52 278 H 150" stroke="rgba(138,208,255,0.6)" stroke-width="3" stroke-linecap="round"/>
      <text x="24" y="342" fill="#f4eadc" font-size="17">Hidden instructions were coaxed out of a public chatbot.</text>
    </g>
    <g transform="translate(370 360)">
      <rect width="250" height="380" rx="24" fill="rgba(255,255,255,0.05)" stroke="rgba(138,208,255,0.28)" stroke-width="2"/>
      <text x="24" y="48" fill="#8ad0ff" font-size="18" letter-spacing="4">02</text>
      <text x="24" y="94" fill="#f4eadc" font-size="30" font-weight="700">Copilot RCE</text>
      <text x="24" y="138" fill="#b69f86" font-size="18">Prompt injection to code exec</text>
      <rect x="24" y="184" width="202" height="124" rx="18" fill="rgba(138,208,255,0.08)" stroke="rgba(138,208,255,0.25)"/>
      <path d="M 58 230 H 192" stroke="#8ad0ff" stroke-width="4" stroke-linecap="round"/>
      <path d="M 58 206 H 168" stroke="rgba(255,255,255,0.55)" stroke-width="3" stroke-linecap="round"/>
      <path d="M 58 262 H 140" stroke="rgba(255,139,77,0.6)" stroke-width="3" stroke-linecap="round"/>
      <text x="24" y="342" fill="#f4eadc" font-size="17">A hidden instruction became a real code path.</text>
    </g>
    <g transform="translate(650 360)">
      <rect width="250" height="380" rx="24" fill="rgba(255,255,255,0.05)" stroke="rgba(255,139,77,0.28)" stroke-width="2"/>
      <text x="24" y="48" fill="#ff8b4d" font-size="18" letter-spacing="4">03</text>
      <text x="24" y="94" fill="#f4eadc" font-size="30" font-weight="700">CamoLeak</text>
      <text x="24" y="138" fill="#b69f86" font-size="18">Agent integration abuse</text>
      <rect x="24" y="184" width="202" height="124" rx="18" fill="rgba(255,139,77,0.08)" stroke="rgba(255,139,77,0.25)"/>
      <path d="M 52 244 L 190 204" stroke="#ff8b4d" stroke-width="4" stroke-linecap="round"/>
      <path d="M 52 208 L 150 278" stroke="rgba(138,208,255,0.6)" stroke-width="4" stroke-linecap="round"/>
      <circle cx="78" cy="242" r="10" fill="#8ad0ff"/>
      <circle cx="168" cy="226" r="10" fill="#ff8b4d"/>
      <text x="24" y="342" fill="#f4eadc" font-size="17">Data exfiltration chain built through an agent.</text>
    </g>
    <g transform="translate(930 360)">
      <rect width="250" height="380" rx="24" fill="rgba(255,255,255,0.05)" stroke="rgba(138,208,255,0.28)" stroke-width="2"/>
      <text x="24" y="48" fill="#8ad0ff" font-size="18" letter-spacing="4">04</text>
      <text x="24" y="94" fill="#f4eadc" font-size="30" font-weight="700">Salesloft-Drift</text>
      <text x="24" y="138" fill="#b69f86" font-size="18">OAuth token theft</text>
      <rect x="24" y="184" width="202" height="124" rx="18" fill="rgba(138,208,255,0.08)" stroke="rgba(138,208,255,0.25)"/>
      <path d="M 56 204 H 190" stroke="#8ad0ff" stroke-width="3" stroke-linecap="round"/>
      <path d="M 56 236 H 172" stroke="#ff8b4d" stroke-width="4" stroke-linecap="round"/>
      <path d="M 56 270 H 154" stroke="rgba(255,255,255,0.55)" stroke-width="3" stroke-linecap="round"/>
      <text x="24" y="342" fill="#f4eadc" font-size="17">An integration became the path to 700+ orgs.</text>
    </g>
  </g>

  <text x="800" y="808" fill="#f4eadc" font-family="Arial, Helvetica, sans-serif" font-size="24" text-anchor="middle" letter-spacing="3">
    Security incidents are now documented in public reporting
  </text>
</svg>
